<svg width="42" height="41" viewBox="0 0 42 41" fill="none" xmlns="http://www.w3.org/2000/svg">
<g clip-path="url(#clip0_10_449)">
<path d="M20.9999 0.773682C9.40794 0.773682 -6.10352e-05 9.7844 -6.10352e-05 20.8869C-6.10352e-05 31.9894 9.40794 41.0001 20.9999 41.0001C32.5919 41.0001 41.9999 31.9894 41.9999 20.8869C41.9999 9.7844 32.5919 0.773682 20.9999 0.773682ZM20.9999 6.80764C24.4859 6.80764 27.2999 9.50281 27.2999 12.8416C27.2999 16.1804 24.4859 18.8756 20.9999 18.8756C17.5139 18.8756 14.6999 16.1804 14.6999 12.8416C14.6999 9.50281 17.5139 6.80764 20.9999 6.80764ZM20.9999 35.3684C15.7499 35.3684 11.1089 32.7939 8.39994 28.8919C8.46294 24.8894 16.7999 22.6971 20.9999 22.6971C25.1789 22.6971 33.5369 24.8894 33.5999 28.8919C30.8909 32.7939 26.2499 35.3684 20.9999 35.3684Z" fill="#2E3A59"/>
</g>
<defs>
<clipPath id="clip0_10_449">
<rect width="42" height="41" fill="white"/>
</clipPath>
</defs>
</svg>
