<svg width="58" height="58" viewBox="0 0 58 58" fill="none" xmlns="http://www.w3.org/2000/svg">
<path d="M45.9167 53.1666H12.0833C9.41396 53.1666 7.25 51.0026 7.25 48.3332V14.4999C7.25 11.8305 9.41396 9.66658 12.0833 9.66658H16.9167V7.24992C16.9167 5.91523 17.9986 4.83325 19.3333 4.83325C20.668 4.83325 21.75 5.91523 21.75 7.24992V9.66658H36.25V7.24992C36.25 5.91523 37.332 4.83325 38.6667 4.83325C40.0014 4.83325 41.0833 5.91523 41.0833 7.24992V9.66658H45.9167C48.586 9.66658 50.75 11.8305 50.75 14.4999V48.3332C50.75 51.0026 48.586 53.1666 45.9167 53.1666ZM12.0833 24.1666V47.3333C12.0833 47.8855 12.531 48.3332 13.0833 48.3332H44.9167C45.469 48.3332 45.9167 47.8855 45.9167 47.3332V24.1666H12.0833ZM13.0833 14.4999C12.531 14.4999 12.0833 14.9476 12.0833 15.4999V19.3333H45.9167V15.4999C45.9167 14.9476 45.469 14.4999 44.9167 14.4999H13.0833ZM41.0833 41.0832C41.0833 42.4179 40.0014 43.4999 38.6667 43.4999C37.332 43.4999 36.25 42.4179 36.25 41.0832C36.25 39.7486 37.332 38.6666 38.6667 38.6666C40.0014 38.6666 41.0833 39.7486 41.0833 41.0832ZM31.4167 41.0832C31.4167 42.4179 30.3347 43.4999 29 43.4999C27.6653 43.4999 26.5833 42.4179 26.5833 41.0832C26.5833 39.7486 27.6653 38.6666 29 38.6666C30.3347 38.6666 31.4167 39.7486 31.4167 41.0832ZM21.75 41.0832C21.75 42.4179 20.668 43.4999 19.3333 43.4999C17.9986 43.4999 16.9167 42.4179 16.9167 41.0832C16.9167 39.7486 17.9986 38.6666 19.3333 38.6666C20.668 38.6666 21.75 39.7486 21.75 41.0832ZM41.0833 31.4166C41.0833 32.7513 40.0014 33.8333 38.6667 33.8333C37.332 33.8333 36.25 32.7513 36.25 31.4166C36.25 30.0819 37.332 28.9999 38.6667 28.9999C40.0014 28.9999 41.0833 30.0819 41.0833 31.4166ZM31.4167 31.4166C31.4167 32.7513 30.3347 33.8333 29 33.8333C27.6653 33.8333 26.5833 32.7513 26.5833 31.4166C26.5833 30.0819 27.6653 28.9999 29 28.9999C30.3347 28.9999 31.4167 30.0819 31.4167 31.4166ZM21.75 31.4166C21.75 32.7513 20.668 33.8333 19.3333 33.8333C17.9986 33.8333 16.9167 32.7513 16.9167 31.4166C16.9167 30.0819 17.9986 28.9999 19.3333 28.9999C20.668 28.9999 21.75 30.0819 21.75 31.4166Z" fill="url(#paint0_linear_1_164)"/>
<defs>
<linearGradient id="paint0_linear_1_164" x1="29.15" y1="-3.17991" x2="32.4972" y2="59.0875" gradientUnits="userSpaceOnUse">
<stop stop-color="#9C2CF3"/>
<stop offset="1" stop-color="#3A49F9"/>
</linearGradient>
</defs>
</svg>
