<svg width="44" height="45" viewBox="0 0 44 45" fill="none" xmlns="http://www.w3.org/2000/svg">
<path d="M1.96652 23.3331C0.748799 23.3331 0.138962 21.8609 1.00002 20.9998L20.3504 1.64948C21.2615 0.738586 22.7385 0.738586 23.6497 1.64948L43 20.9998C43.8611 21.8609 43.2512 23.3331 42.0335 23.3331C41.2786 23.3331 40.6667 23.9451 40.6667 24.7V41.9998C40.6667 43.2885 39.622 44.3331 38.3334 44.3331H34.8334C30.323 44.3331 26.6667 40.6768 26.6667 36.1665V32.6665C26.6667 30.0891 24.5774 27.9998 22 27.9998C19.4227 27.9998 17.3334 30.0892 17.3334 32.6665V36.1665C17.3334 40.6768 13.677 44.3331 9.16669 44.3331H5.66669C4.37802 44.3331 3.33335 43.2885 3.33335 41.9998V24.7C3.33335 23.9451 2.7214 23.3331 1.96652 23.3331Z" fill="#D8DEF3"/>
</svg>