<svg width="50" height="50" viewBox="0 0 50 50" fill="none" xmlns="http://www.w3.org/2000/svg">
<path d="M25 45.8333C22.6988 45.8333 20.8333 43.9678 20.8333 41.6666H29.1667C29.1667 43.9678 27.3012 45.8333 25 45.8333ZM41.6667 39.5833H8.33334V35.4166L12.5 33.3333V21.875C12.5 14.6625 15.4604 9.98538 20.8333 8.70829V8.33329C20.8333 6.03211 22.6988 4.16663 25 4.16663C27.3012 4.16663 29.1667 6.03211 29.1667 8.33329V8.70829C34.5396 9.98329 37.5 14.6583 37.5 21.875V33.3333L41.6667 35.4166V39.5833ZM25 11.9791C22.4577 11.815 20.0058 12.9526 18.4896 15C17.1928 17.0511 16.5565 19.4508 16.6667 21.875V34.4166C16.6667 34.9689 17.1144 35.4166 17.6667 35.4166H32.3333C32.8856 35.4166 33.3333 34.9689 33.3333 34.4166V21.875C33.4433 19.4508 32.8071 17.0512 31.5104 15C29.9942 12.9526 27.5424 11.815 25 11.9791Z" fill="#D8DEF3"/>
<circle cx="35" cy="17" r="5" fill="url(#paint0_linear_1_166)" stroke="#F2F5FF" stroke-width="2"/>
<defs>
<linearGradient id="paint0_linear_1_166" x1="35.0414" y1="9.01053" x2="35.7897" y2="24.4785" gradientUnits="userSpaceOnUse">
<stop stop-color="#9C2CF3"/>
<stop offset="1" stop-color="#3A49F9"/>
</linearGradient>
</defs>
</svg>
