<svg width="51" height="51" viewBox="0 0 51 51" fill="none" xmlns="http://www.w3.org/2000/svg">
<path d="M41.4872 50.9591H9.47196C4.16766 50.9591 0 46.7915 0 41.4872V9.47196C0 4.16766 4.16766 0 9.47196 0H41.4872C46.7915 0 50.9591 4.16766 50.9591 9.47196V41.4872C50.9591 46.7915 46.602 50.9591 41.4872 50.9591Z" fill="white" fill-opacity="0.2"/>
<path fill-rule="evenodd" clip-rule="evenodd" d="M14.1234 6.82798C13.8468 6.90813 13.6088 6.98469 13.5944 6.99813C13.5616 7.02875 14.7358 11.6612 14.8045 11.7724C14.8412 11.8319 14.9889 11.8211 15.3513 11.7325C15.6243 11.6658 15.8751 11.5865 15.9086 11.5563C15.9542 11.5155 15.0303 7.67873 14.7626 6.79663C14.7172 6.64733 14.753 6.64553 14.1234 6.82798ZM32.2085 6.9261C31.9547 7.10394 31.9139 7.24024 31.725 8.53984C31.6266 9.21635 31.5125 9.83276 31.4714 9.90968C31.3435 10.1487 31.0719 10.283 30.8257 10.2288C30.6435 10.1888 30.4535 9.98042 29.7777 9.0797C28.9053 7.91667 28.7126 7.75428 28.3627 7.88742C28.2573 7.92753 27.7584 8.27214 27.2539 8.65328L26.3367 9.34632L25.6845 9.3052C23.7873 9.1858 21.7165 9.62897 19.9249 10.538C18.7867 11.1155 17.9128 11.7522 16.9971 12.671C15.0953 14.5793 13.9788 16.8691 13.6449 19.5459C13.5606 20.2221 13.5478 20.2571 13.3853 20.2571C13.2912 20.2571 13.126 20.3461 13.0181 20.4548C12.8523 20.6218 12.7894 20.8113 12.6126 21.6768C12.4974 22.2402 12.377 22.7012 12.3447 22.7012C12.3125 22.7012 11.9075 22.4354 11.4446 22.1105C10.2345 21.2612 10.3319 21.2418 8.98308 22.5997C8.07606 23.5128 7.90896 23.7147 7.90896 23.8975C7.90896 24.0512 8.08598 24.3723 8.51962 25.0057C8.85549 25.4962 9.13029 25.9152 9.13029 25.9368C9.13029 25.9584 8.66963 26.0703 8.10652 26.1855C7.24153 26.3624 7.05215 26.4253 6.88519 26.5912L6.68762 26.7875V28.2004V29.6132L6.88519 29.8096C7.0518 29.9753 7.24031 30.0384 8.08856 30.2118C8.64176 30.3249 9.10838 30.4286 9.12555 30.4423C9.14265 30.456 8.87201 30.8855 8.52415 31.3966C7.95723 32.2296 7.89617 32.3509 7.93626 32.5646C7.97074 32.7484 8.21609 33.0378 9.00765 33.8284C10.3383 35.1575 10.2339 35.1365 11.4252 34.3155C11.9168 33.9767 12.338 33.6995 12.3612 33.6995C12.3844 33.6995 12.4974 34.1605 12.6126 34.7239C12.7894 35.5894 12.8523 35.7789 13.0181 35.946L13.2143 36.1436H14.6263H16.0383L16.2345 35.946C16.4003 35.7789 16.4632 35.5894 16.64 34.7239C16.7551 34.1605 16.8682 33.6995 16.8914 33.6995C16.9146 33.6995 17.3358 33.9767 17.8274 34.3155C18.9463 35.0866 18.9821 35.087 19.7335 34.3403L20.2505 33.8263L20.2788 34.967C20.303 35.9424 20.3295 36.157 20.4615 36.4479C20.6631 36.8919 20.9319 37.2392 21.234 37.4464L21.4774 37.6132L21.5003 39.5921L21.5232 41.5709L21.7245 42.0023C21.986 42.5628 22.4047 42.9839 22.9517 43.2363C23.3822 43.435 23.4218 43.4397 24.8965 43.464C26.5408 43.4911 27.0875 43.4274 27.5581 43.1536C27.9907 42.902 28.3822 42.4796 28.5917 42.0382C28.778 41.6457 28.7795 41.6284 28.8031 39.6301L28.8267 37.6173L29.1105 37.4188C29.2666 37.3096 29.4914 37.067 29.6102 36.8797C29.985 36.2884 30.0366 35.982 30.0366 34.3486C30.0366 31.9643 30.2492 31.4684 31.7165 30.4299C32.6828 29.746 32.8707 29.5741 32.7947 29.444C32.7596 29.3838 32.5836 29.172 32.4038 28.9733L32.0769 28.612L31.8291 28.8199C31.6928 28.9342 31.28 29.2435 30.9119 29.5074C29.8671 30.2561 29.3439 30.918 29.0187 31.9024C28.8834 32.3118 28.8591 32.593 28.8219 34.1726L28.7794 35.9756L28.5781 36.2394C28.1995 36.7357 28.274 36.7258 25.0964 36.7031L22.2417 36.6828L22.0071 36.5154C21.55 36.1891 21.5276 36.0847 21.4812 34.059C21.4341 32.0013 21.3813 31.7396 20.8467 30.916C20.4958 30.3753 20.1651 30.0571 19.332 29.4589C18.4382 28.817 17.983 28.4198 17.381 27.7568C16.1198 26.3674 15.2533 24.5874 14.8674 22.5933C14.7186 21.8247 14.741 19.6593 14.9057 18.8913C15.5689 15.7986 17.3886 13.2881 20.0245 11.8292C21.4001 11.068 22.8146 10.6492 24.4508 10.519C24.9832 10.4767 25.0076 10.4814 25.0076 10.6262C25.0076 10.843 25.0821 10.9621 25.9138 12.0764C26.6852 13.1099 26.7896 13.361 26.5679 13.6499C26.3456 13.9396 26.2188 13.9467 24.8257 13.7464C23.3605 13.5358 23.1646 13.5537 23.0005 13.914C22.8715 14.1975 22.3866 17.7431 22.4453 17.9738C22.5278 18.2979 22.7684 18.3885 24.0372 18.573C24.6931 18.6684 25.3099 18.7665 25.4077 18.7911C25.7732 18.8829 25.9233 19.417 25.6706 19.7259C25.6023 19.8094 25.0902 20.2193 24.5325 20.637C23.5131 21.4004 23.4271 21.4913 23.4271 21.806C23.4271 21.9998 25.698 25.0867 25.9333 25.2127C26.2436 25.3789 26.4284 25.2943 27.4997 24.4953C28.085 24.0588 28.6352 23.6836 28.7224 23.6616C28.9602 23.6017 29.2691 23.7315 29.3871 23.941C29.4805 24.1067 29.4739 24.2594 29.3268 25.337C29.2359 26.0025 29.1726 26.6732 29.186 26.8274C29.2272 27.3002 29.3605 27.3516 31.2639 27.6282C33.2607 27.9184 33.5739 27.9318 33.7707 27.7349C33.946 27.5595 33.9501 27.5418 34.1645 26.0438C34.325 24.9234 34.3551 24.8083 34.527 24.66C34.7138 24.4989 34.9466 24.4571 35.173 24.544C35.2385 24.5692 35.6328 25.0463 36.0491 25.6043C36.4655 26.1623 36.8708 26.6755 36.9497 26.7447C37.2845 27.0382 37.4708 26.9488 39.1606 25.6829C40.7573 24.4868 40.9409 24.2999 40.8552 23.9583C40.8345 23.8756 40.4651 23.3388 40.0343 22.7652C39.6035 22.1917 39.2299 21.6558 39.204 21.5744C39.1382 21.3665 39.2645 21.0774 39.484 20.9334C39.6603 20.8178 39.7396 20.8212 41.0292 21.0008C42.4197 21.1944 42.6188 21.1883 42.82 20.9457C42.9043 20.844 43.4649 17.3537 43.4697 16.9005C43.4706 16.8137 43.3986 16.6586 43.3097 16.5558C43.1605 16.3832 43.0409 16.3531 41.7576 16.1644C40.9008 16.0384 40.3285 15.9211 40.266 15.8587C40.0995 15.692 40.0271 15.3343 40.1213 15.1433C40.1674 15.05 40.6409 14.6434 41.1736 14.24C42.253 13.4225 42.4655 13.2119 42.4655 12.9595C42.4655 12.8487 42.075 12.2623 41.3789 11.3281C40.0088 9.48915 39.995 9.47435 39.6547 9.47435C39.424 9.47435 39.2328 9.58814 38.3211 10.2681C37.7358 10.7046 37.1866 11.0795 37.1006 11.1012C36.8539 11.1634 36.5479 10.9756 36.4615 10.709C36.4015 10.5239 36.4208 10.224 36.5493 9.34409C36.7565 7.92551 36.757 7.80238 36.5564 7.56911C36.4032 7.39091 36.293 7.36632 34.455 7.09999C33.3881 6.94536 32.482 6.81791 32.4415 6.81676C32.4008 6.81554 32.296 6.86478 32.2085 6.9261ZM35.4066 8.49765C35.4224 8.51346 35.3813 8.89337 35.3153 9.34186C35.1443 10.5036 35.1565 10.8844 35.3793 11.3243C35.8232 12.2008 36.9151 12.5816 37.7589 12.1543C37.8779 12.094 38.324 11.7856 38.7502 11.4689C39.1764 11.1523 39.5349 10.9055 39.547 10.9206C39.8368 11.2833 40.8983 12.7343 40.9212 12.7992C40.9391 12.8496 40.6525 13.109 40.266 13.3921C39.1329 14.2221 38.856 14.6176 38.8556 15.4075C38.8553 16.1389 39.2801 16.7881 39.9394 17.0637C40.0815 17.1232 40.6333 17.2358 41.1654 17.314C41.6976 17.3923 42.142 17.4654 42.1531 17.4764C42.1641 17.4874 42.0941 18.0125 41.9975 18.6431C41.901 19.2738 41.8213 19.8087 41.8204 19.8317C41.8196 19.8548 41.4067 19.8122 40.9029 19.737C40.3992 19.6618 39.8213 19.6159 39.6189 19.635C38.5355 19.7372 37.7924 20.7478 38.0143 21.8171C38.0792 22.1301 38.2181 22.3705 38.7355 23.0645C39.0879 23.5373 39.3763 23.9361 39.3763 23.9508C39.3763 23.9655 38.943 24.303 38.4134 24.7008L37.4506 25.4241L36.8149 24.5858C35.994 23.5032 35.7095 23.3115 34.9276 23.3138C34.2757 23.3159 33.9233 23.4725 33.5261 23.9368C33.2202 24.2943 33.099 24.683 32.9765 25.698C32.928 26.101 32.8648 26.4686 32.8361 26.515C32.7969 26.5784 32.4966 26.5589 31.6258 26.4359C30.2915 26.2477 30.4081 26.3751 30.5755 25.289C30.737 24.2402 30.7184 23.8631 30.4826 23.4115C30.1257 22.728 29.45 22.3585 28.6977 22.4356C28.2263 22.4839 28.0192 22.5942 27.1026 23.2847L26.3528 23.8495L25.6443 22.9036C25.2546 22.3834 24.9358 21.9352 24.9358 21.9077C24.9358 21.8802 25.2905 21.5895 25.7242 21.2617C26.1578 20.9338 26.595 20.5466 26.6957 20.4011C27.302 19.5257 27.0396 18.3117 26.1285 17.7775C25.8912 17.6384 25.5715 17.5587 24.7838 17.4421C24.2154 17.3579 23.7405 17.2812 23.7285 17.2716C23.6931 17.2432 24.0192 14.9783 24.0667 14.9229C24.0905 14.8951 24.5465 14.9367 25.0798 15.0154C26.3726 15.2062 26.8273 15.1185 27.3723 14.5734C27.7038 14.2415 27.8271 13.9538 27.865 13.4228C27.9088 12.8114 27.7819 12.5192 27.0562 11.5604C26.7538 11.1609 26.5167 10.805 26.5293 10.7696C26.5514 10.7075 28.3506 9.33058 28.4096 9.33058C28.4255 9.33058 28.7176 9.70237 29.0586 10.1567C29.3998 10.6111 29.7998 11.0615 29.9476 11.1577C30.7108 11.6545 31.611 11.5449 32.2791 10.8739C32.6027 10.5487 32.7214 10.1987 32.8757 9.11492C32.9405 8.66025 33.0041 8.25288 33.0172 8.2096C33.0337 8.15519 33.4003 8.18293 34.2094 8.29989C34.8521 8.39284 35.3908 8.48183 35.4066 8.49765ZM8.65828 10.52C8.47371 10.7788 8.3347 10.9999 8.34928 11.0113C8.60598 11.2117 12.4821 13.9538 12.5401 13.9761C12.6127 14.004 13.3399 13.0833 13.284 13.0342C13.1172 12.8872 9.09293 10.0494 9.05133 10.0494C9.01972 10.0494 8.84284 10.2612 8.65828 10.52ZM31.9308 12.6008C30.4455 12.924 29.2232 13.8851 28.5713 15.2424C28.191 16.0342 28.0745 16.5466 28.0766 17.4176C28.0798 18.7261 28.5534 19.8529 29.5008 20.8062C29.9853 21.2937 30.1953 21.4454 30.7599 21.7158C31.6495 22.1418 32.0615 22.2348 33.0181 22.2257C33.6606 22.2195 33.9159 22.1832 34.3832 22.0309C35.7179 21.596 36.7204 20.7158 37.3362 19.4377C38.2455 17.5505 37.7686 15.1762 36.1934 13.7485C35.6537 13.2594 34.6539 12.7476 33.9521 12.601C33.3374 12.4727 32.5201 12.4726 31.9308 12.6008ZM20.1387 13.9665C18.4235 15.2153 17.2124 17.1008 16.7909 19.1788C16.1229 22.4713 17.4735 25.8741 20.2301 27.8434C20.5462 28.0693 21.2905 28.489 21.884 28.7762C22.8732 29.2548 23.0031 29.3406 23.4405 29.8045C23.9898 30.387 24.3345 31.0406 24.4442 31.7071C24.5853 32.5649 24.5026 32.4775 25.1734 32.4775H25.7675L25.7179 31.9923C25.6503 31.3307 25.591 31.0821 25.3695 30.5342C25.1168 29.9091 24.7344 29.3454 24.2288 28.8526C23.6783 28.316 23.4165 28.1454 22.4284 27.679C21.3533 27.1717 20.7626 26.785 20.0996 26.1549C18.8849 25.0003 18.0888 23.3917 17.8914 21.6925C17.5976 19.1636 18.7074 16.5578 20.715 15.0632C20.9818 14.8646 21.1999 14.6762 21.1999 14.6443C21.1999 14.5918 20.6273 13.6437 20.5956 13.6437C20.5882 13.6437 20.3826 13.7889 20.1387 13.9665ZM33.7938 13.8226C35.0935 14.1613 36.1302 15.1895 36.4765 16.4831C36.7944 17.6709 36.4065 19.0362 35.4909 19.9524C34.0545 21.3896 31.8037 21.3809 30.356 19.9323C28.9117 18.4872 28.9226 16.2283 30.3807 14.8008C31.3308 13.8705 32.5915 13.5092 33.7938 13.8226ZM9.72824 16.6155C8.45683 16.9381 7.39671 17.2222 7.37236 17.247C7.32351 17.2966 7.53947 18.2465 7.62029 18.3374C7.65851 18.3804 11.9444 17.3669 12.4101 17.2048C12.5186 17.167 12.2363 16.0131 12.1208 16.0225C12.0764 16.0261 10.9996 16.2931 9.72824 16.6155ZM14.0428 24.134C14.1069 24.3487 14.1593 24.5314 14.1593 24.5401C14.1593 24.5487 13.9896 24.5953 13.7821 24.6436C12.3132 24.9857 11.1315 26.3302 10.959 27.8557C10.8139 29.139 11.536 30.6149 12.6348 31.2812C14.3775 32.3378 16.5249 31.8863 17.644 30.2279L17.8765 29.8833L18.0835 30.0519C18.1972 30.1447 18.505 30.3716 18.7674 30.5563C19.3353 30.956 19.7634 31.4245 19.9777 31.8806L20.134 32.2133L19.4842 32.8634L18.8344 33.5136L18.1094 33.0228C17.7106 32.7529 17.2619 32.501 17.1124 32.463C16.6074 32.3347 16.0405 32.6105 15.7845 33.1088C15.7293 33.2163 15.6093 33.6681 15.5179 34.1129L15.3517 34.9216H14.6217H13.8916L13.7707 34.3125C13.5106 33.0018 13.2968 32.6516 12.6505 32.4774C12.233 32.365 11.9514 32.4671 11.1292 33.0289L10.419 33.5142L9.86726 32.9622L9.3155 32.4101L9.80396 31.6945C10.0727 31.3009 10.3207 30.8551 10.3551 30.7038C10.4929 30.0998 10.1041 29.4679 9.48081 29.2827C9.2859 29.2248 8.85247 29.1229 8.51768 29.0564L7.90896 28.9355V28.2006V27.4657L8.71662 27.3047C9.16089 27.2162 9.60963 27.0996 9.71387 27.0456C10.1758 26.8066 10.4694 26.1979 10.3581 25.7099C10.3253 25.5658 10.084 25.1339 9.82207 24.75C9.56013 24.3662 9.34582 24.0305 9.34582 24.0039C9.34582 23.9773 9.58685 23.716 9.88141 23.4232L10.4169 22.8909L11.1734 23.4036C11.9886 23.9561 12.2565 24.049 12.6931 23.9306C13.1737 23.8003 13.5068 23.3977 13.6212 22.809C13.6765 22.5248 13.6785 22.5286 13.8017 23.1325C13.8701 23.4685 13.9787 23.9192 14.0428 24.134ZM14.8509 26.1696C15.269 26.9953 15.7348 27.6686 16.523 28.5861L16.9161 29.0437L16.7467 29.3633C16.5138 29.8026 15.9576 30.2826 15.467 30.4678C15.1354 30.593 14.9479 30.6166 14.4826 30.5918C13.5204 30.5405 12.8445 30.0799 12.4182 29.1849C12.2175 28.7636 12.2046 28.6877 12.2348 28.1066C12.2579 27.6627 12.3131 27.386 12.4252 27.1523C12.7893 26.393 13.6274 25.816 14.3916 25.7984C14.645 25.7926 14.6703 25.8131 14.8509 26.1696ZM36.7899 30.0694V30.6804H38.9093H41.0286V30.0694V29.4583H38.9093H36.7899V30.0694ZM36.1447 33.0935C35.933 33.3546 35.7919 33.5892 35.8276 33.6208C35.863 33.6522 36.6816 34.3354 37.6467 35.139L39.4015 36.6L39.7823 36.1741C39.9917 35.9399 40.1638 35.7248 40.1648 35.6963C40.1661 35.6567 37.2861 33.2187 36.6395 32.7121C36.5428 32.6364 36.4697 32.6927 36.1447 33.0935ZM24.5766 34.5981V35.4967H25.1872H25.7979V34.5981V33.6995H25.1872H24.5766V34.5981ZM33.1259 36.4283V38.5877H33.7376H34.3494L34.3304 36.4491L34.3113 34.3106L33.7186 34.2897L33.1259 34.2688V36.4283ZM27.594 38.5518V39.1628H25.1513H22.7086V38.5997C22.7086 38.29 22.7302 38.015 22.7566 37.9887C22.7829 37.9623 23.8821 37.9408 25.1992 37.9408H27.594V38.5518ZM27.594 40.8294C27.594 41.3828 27.4081 41.7911 27.0437 42.0382C26.7841 42.2143 26.7479 42.2183 25.2287 42.2378C23.4848 42.2603 23.3719 42.2353 22.9771 41.7407C22.8161 41.5391 22.7593 41.3796 22.7289 41.0447C22.6639 40.3265 22.4467 40.3848 25.185 40.3848H27.594V40.8294Z" fill="white"/>
</svg>
